<svg width="80" height="31" viewBox="0 0 80 31" fill="none" xmlns="http://www.w3.org/2000/svg">
<path d="M77.3106 22.2274L76.3418 21.4919C75.178 20.6082 73.5277 20.862 72.2003 21.4731C71.3823 21.8366 70.4733 22.0184 69.4735 22.0184C68.5646 22.0184 67.7271 21.8691 66.961 21.5705C66.1949 21.2588 65.5327 20.8303 64.9743 20.285C64.429 19.7266 64.0005 19.0709 63.6888 18.3178C63.3902 17.5517 63.2409 16.7142 63.2409 15.8053C63.2409 14.8963 63.3902 14.0653 63.6888 13.3122C64.0005 12.5461 64.429 11.8904 64.9743 11.345C65.5327 10.7867 66.1949 10.3582 66.961 10.0595C67.7271 9.74791 68.5646 9.5921 69.4735 9.5921C70.4733 9.5921 71.3823 9.77388 72.2003 10.1375C73.5199 10.7239 75.1547 10.9906 76.3078 10.1214L77.3079 9.36746C79.1008 8.01585 79.4501 5.38443 77.5796 4.14238C77.0337 3.77992 76.4547 3.45402 75.8425 3.16469C73.9597 2.26874 71.8367 1.82077 69.4735 1.82077C67.4349 1.82077 65.5521 2.16487 63.8252 2.85305C62.1112 3.54124 60.6309 4.5086 59.3844 5.75513C58.1509 6.98867 57.1835 8.46243 56.4823 10.1764C55.7942 11.8774 55.4501 13.7537 55.4501 15.8053C55.4501 17.8439 55.7942 19.7201 56.4823 21.4341C57.1835 23.1481 58.1509 24.6283 59.3844 25.8749C60.6309 27.1084 62.1112 28.0693 63.8252 28.7575C65.5521 29.4457 67.4349 29.7897 69.4735 29.7897C71.8367 29.7897 73.9597 29.3418 75.8425 28.4458C76.4524 28.1576 77.0294 27.833 77.5735 27.4722C79.45 26.2277 79.1039 23.589 77.3106 22.2274Z" stroke="white" stroke-width="1.65523"/>
<path fill-rule="evenodd" clip-rule="evenodd" d="M0.827637 20.9268V10.7988C0.827637 6.06577 4.6645 2.2289 9.39752 2.2289C11.3842 2.2289 13.215 2.56651 14.89 3.24171C16.5651 3.91691 18.0064 4.8583 19.2139 6.06587C20.4345 7.27345 21.3824 8.71475 22.0576 10.3898C22.7328 12.0518 23.0704 13.8762 23.0704 15.8628C23.0704 17.8495 22.7328 19.6803 22.0576 21.3553C21.3824 23.0174 20.4345 24.4522 19.2139 25.6597C18.0064 26.8673 16.5651 27.8087 14.89 28.4839C13.215 29.1591 11.3842 29.4967 9.39752 29.4967C4.6645 29.4967 0.827637 25.6598 0.827637 20.9268ZM11.7932 21.2774C11.079 21.5631 10.2935 21.7059 9.43647 21.7059C8.98468 21.7059 8.61844 21.3397 8.61844 20.8879V10.8377C8.61844 10.386 8.98468 10.0197 9.43647 10.0197C10.2935 10.0197 11.079 10.169 11.7932 10.4677C12.5073 10.7533 13.1176 11.1559 13.624 11.6753C14.1434 12.1817 14.5459 12.7919 14.8316 13.5061C15.1302 14.2202 15.2796 15.0058 15.2796 15.8628C15.2796 16.7198 15.1302 17.5054 14.8316 18.2195C14.5459 18.9337 14.1434 19.5505 13.624 20.0698C13.1176 20.5762 12.5073 20.9788 11.7932 21.2774Z" stroke="white" stroke-width="1.65523"/>
<path d="M36.3853 1.24984L37.1411 1.05716C38.2962 0.762693 39.5053 0.751399 40.6656 1.02424L40.7805 1.05125C43.8244 1.76695 46.1581 4.21315 46.7298 7.28731L49.3096 21.1591C49.335 21.2954 49.454 21.3943 49.5926 21.3943C49.7723 21.3943 49.908 21.2315 49.8758 21.0548L49.295 17.8689C49.0872 16.7393 48.9314 15.5187 48.8275 14.2073C48.7236 12.8828 48.6717 11.5389 48.6717 10.1755C48.6717 8.81213 48.5678 7.60133 48.6717 6.28988C48.6717 6.28988 48.6717 2.2289 52.6536 2.2289C55.4501 2.2289 56.875 4.4126 56.4357 6.77806L53.0649 24.9282C52.5732 27.5761 50.2631 29.4967 47.5699 29.4967C44.878 29.4967 42.7048 28.7575 42.0755 24.9313C42.0755 24.9313 40.0565 7.9451 39.5599 7.9451C39.0633 7.9451 36.3133 24.9286 36.3133 24.9286C35.5874 28.4699 33.5129 29.4967 30.8204 29.4967C28.1284 29.4967 25.8192 27.5769 25.3277 24.9302L21.9677 6.83788C21.5226 4.44131 23.362 2.2289 25.7995 2.2289C27.6771 2.2289 29.2879 3.56769 29.6312 5.41366L32.5594 21.1591C32.5848 21.2954 32.7037 21.3943 32.8424 21.3943C33.0221 21.3943 33.1578 21.2315 33.1256 21.0548L32.5447 17.8689C32.337 16.7393 32.1812 15.5187 32.0773 14.2073C31.9734 12.8828 31.9215 11.5389 31.9215 10.1755C31.9215 8.81213 31.9734 7.47471 32.0773 6.16326C32.2896 3.75687 34.0444 1.8466 36.3853 1.24984Z" stroke="white" stroke-width="1.65523"/>
</svg>
